<svg xmlns="http://www.w3.org/2000/svg" width="142" height="70" viewBox="0 0 142 70" fill="none"><mask id="mask0_196_1878" style="mask-type:alpha" maskUnits="userSpaceOnUse" x="0" y="0" width="142" height="70"><path d="M5.05852 0H142L136.941 70H0L5.05852 0Z" fill="#FFC700"></path></mask><g mask="url(#mask0_196_1878)"><path d="M5.05852 0H142L136.941 70H0L5.05852 0Z" fill="#FFC700"></path><rect y="50" width="139" height="20" fill="#1C1C1C"></rect></g><path d="M118.254 39.9996C117.987 39.9996 117.827 39.8663 117.774 39.5996L116.134 28.5596C116.081 28.4529 116.014 28.3996 115.934 28.3996H114.654C114.494 28.3996 114.414 28.4663 114.414 28.5996L113.094 39.5196C113.067 39.6529 113.001 39.7729 112.894 39.8796C112.787 39.9596 112.667 39.9996 112.534 39.9996H108.014C107.881 39.9996 107.774 39.9596 107.694 39.8796C107.614 39.7729 107.587 39.6529 107.614 39.5196L110.934 12.4396C110.961 12.3063 111.014 12.1996 111.094 12.1196C111.201 12.0129 111.321 11.9596 111.454 11.9596H119.294C121.241 11.9596 122.774 12.5996 123.894 13.8796C125.041 15.1329 125.614 16.8129 125.614 18.9196C125.614 19.5596 125.587 20.0529 125.534 20.3996C125.347 21.9463 124.894 23.3329 124.174 24.5596C123.454 25.7596 122.521 26.7063 121.374 27.3996C121.321 27.4263 121.281 27.4663 121.254 27.5196C121.227 27.5463 121.227 27.5863 121.254 27.6396L123.374 39.4396V39.5196C123.374 39.6529 123.321 39.7729 123.214 39.8796C123.134 39.9596 123.027 39.9996 122.894 39.9996H118.254ZM116.054 16.8396C115.921 16.8396 115.854 16.9063 115.854 17.0396L115.014 23.8396C114.961 23.9729 115.014 24.0396 115.174 24.0396H116.934C117.814 24.0396 118.561 23.6529 119.174 22.8796C119.787 22.0796 120.094 21.0263 120.094 19.7196C120.094 18.8129 119.881 18.1063 119.454 17.5996C119.054 17.0929 118.507 16.8396 117.814 16.8396H116.054Z" fill="black"></path><path d="M96.6148 40.3197C94.4548 40.3197 92.7481 39.733 91.4948 38.5597C90.2681 37.3597 89.6548 35.733 89.6548 33.6797C89.6548 33.413 89.6814 32.9864 89.7348 32.3997L91.2948 19.5997C91.5881 17.1997 92.5348 15.2797 94.1348 13.8397C95.7348 12.3997 97.7215 11.6797 100.095 11.6797C102.255 11.6797 103.961 12.2797 105.215 13.4797C106.468 14.653 107.095 16.2664 107.095 18.3197C107.095 18.5864 107.068 19.013 107.015 19.5997L105.455 32.3997C105.161 34.7997 104.201 36.7197 102.575 38.1597C100.975 39.5997 98.9881 40.3197 96.6148 40.3197ZM97.1748 35.4797C97.9214 35.4797 98.5348 35.2264 99.0148 34.7197C99.5215 34.1864 99.8281 33.493 99.9348 32.6397L101.575 19.3597C101.601 19.253 101.615 19.093 101.615 18.8797C101.615 18.1597 101.428 17.5864 101.055 17.1597C100.681 16.733 100.175 16.5197 99.5348 16.5197C98.8148 16.5197 98.2015 16.7864 97.6948 17.3197C97.2148 17.8264 96.9214 18.5064 96.8148 19.3597L95.1748 32.6397C95.1481 32.7464 95.1348 32.9064 95.1348 33.1197C95.1348 33.8397 95.3214 34.413 95.6948 34.8397C96.0681 35.2664 96.5614 35.4797 97.1748 35.4797Z" fill="black"></path><path d="M90.2729 11.9996C90.4063 11.9996 90.5129 12.053 90.5929 12.1596C90.6729 12.2396 90.6996 12.3463 90.6729 12.4796L90.1929 16.3596C90.1663 16.493 90.0996 16.613 89.9929 16.7196C89.9129 16.7996 89.8063 16.8396 89.6729 16.8396H84.7929C84.7396 16.8396 84.6863 16.8663 84.6329 16.9196C84.6063 16.9463 84.5929 16.9863 84.5929 17.0396L81.8329 39.5196C81.8063 39.653 81.7396 39.773 81.6329 39.8796C81.5529 39.9596 81.4463 39.9996 81.3129 39.9996H76.7529C76.6196 39.9996 76.5129 39.9596 76.4329 39.8796C76.3529 39.773 76.3263 39.653 76.3529 39.5196L79.1129 17.0396C79.1663 16.9063 79.1129 16.8396 78.9529 16.8396H74.3129C74.0196 16.8396 73.8729 16.6796 73.8729 16.3596L74.3529 12.4796C74.3796 12.3463 74.4329 12.2396 74.5129 12.1596C74.6196 12.053 74.7396 11.9996 74.8729 11.9996H90.2729Z" fill="black"></path><path d="M71.9207 16.3596C71.894 16.493 71.8274 16.613 71.7207 16.7196C71.6407 16.7996 71.534 16.8396 71.4007 16.8396H63.2807C63.1474 16.8396 63.0807 16.9063 63.0807 17.0396L62.2807 23.3596C62.2807 23.493 62.334 23.5596 62.4407 23.5596H67.1207C67.254 23.5596 67.3607 23.613 67.4407 23.7196C67.5207 23.7996 67.5474 23.9063 67.5207 24.0396L67.0407 27.9196C67.014 28.053 66.9474 28.173 66.8407 28.2796C66.7607 28.3596 66.654 28.3996 66.5207 28.3996H61.8807C61.7207 28.3996 61.6407 28.4663 61.6407 28.5996L60.8807 34.9596C60.8274 35.093 60.8807 35.1596 61.0407 35.1596H69.1207C69.254 35.1596 69.3607 35.213 69.4407 35.3196C69.5474 35.3996 69.5874 35.5063 69.5607 35.6396L69.0807 39.5196C69.054 39.653 68.9874 39.773 68.8807 39.8796C68.8007 39.9596 68.694 39.9996 68.5607 39.9996H55.2407C55.1074 39.9996 55.0007 39.9596 54.9207 39.8796C54.8407 39.773 54.814 39.653 54.8407 39.5196L58.1607 12.4796C58.1874 12.3463 58.2407 12.2396 58.3207 12.1596C58.4274 12.053 58.5474 11.9996 58.6807 11.9996H72.0007C72.134 11.9996 72.2407 12.053 72.3207 12.1596C72.4007 12.2396 72.4274 12.3463 72.4007 12.4796L71.9207 16.3596Z" fill="black"></path><path d="M36.0032 39.9996C35.8165 39.9996 35.6965 39.9463 35.6432 39.8396C35.6165 39.733 35.6432 39.5996 35.7232 39.4396L42.6032 26.1196C42.6565 26.0396 42.6698 25.9596 42.6432 25.8796L39.0032 12.5596L38.9632 12.3996C38.9632 12.133 39.1098 11.9996 39.4032 11.9996H44.0832C44.3232 11.9996 44.4698 12.133 44.5232 12.3996L46.2032 20.0796C46.2032 20.1596 46.2298 20.1996 46.2832 20.1996C46.3632 20.1996 46.4165 20.1596 46.4432 20.0796L49.9632 12.3996C50.0965 12.133 50.2832 11.9996 50.5232 11.9996H55.1232C55.3098 11.9996 55.4165 12.053 55.4432 12.1596C55.4965 12.2663 55.4832 12.3996 55.4032 12.5596L48.5232 25.8796C48.4698 25.9596 48.4565 26.0396 48.4832 26.1196L52.1232 39.4396L52.1632 39.5996C52.1632 39.7063 52.1098 39.7996 52.0032 39.8796C51.9232 39.9596 51.8165 39.9996 51.6832 39.9996H47.0832C46.8432 39.9996 46.6965 39.8663 46.6432 39.5996L44.9632 31.9596C44.9632 31.8796 44.9365 31.8396 44.8832 31.8396C44.8298 31.8396 44.7765 31.8796 44.7232 31.9596L41.1632 39.5996C41.0298 39.8663 40.8432 39.9996 40.6032 39.9996H36.0032Z" fill="black"></path><path d="M28.552 39.9996C28.2587 39.9996 28.112 39.853 28.112 39.5596L27.952 35.7196C27.9787 35.6663 27.9653 35.6263 27.912 35.5996C27.8587 35.5463 27.8053 35.5196 27.752 35.5196H22.912C22.752 35.5196 22.6587 35.573 22.632 35.6796L21.472 39.5596C21.392 39.853 21.2053 39.9996 20.912 39.9996H16.392C16.0187 39.9996 15.912 39.8263 16.072 39.4796L25.072 12.4396C25.152 12.1463 25.3387 11.9996 25.632 11.9996H30.872C31.1653 11.9996 31.312 12.1463 31.312 12.4396L33.672 39.4796V39.5596C33.672 39.853 33.5253 39.9996 33.232 39.9996H28.552ZM24.072 30.9596C24.0453 31.093 24.0987 31.1596 24.232 31.1596H27.592C27.6987 31.1596 27.752 31.093 27.752 30.9596L27.392 20.6396C27.392 20.5596 27.3653 20.5196 27.312 20.5196C27.2587 20.5196 27.2187 20.5596 27.192 20.6396L24.072 30.9596Z" fill="black"></path><path d="M110.666 64.9999C110.572 64.9999 110.516 64.9532 110.498 64.8599L109.826 60.8279C109.826 60.7906 109.807 60.7719 109.77 60.7719H109.056C109.037 60.7719 109.018 60.7812 109 60.7999C108.99 60.8092 108.986 60.8232 108.986 60.8419L108.496 64.8319C108.486 64.8786 108.463 64.9206 108.426 64.9579C108.398 64.9859 108.36 64.9999 108.314 64.9999H107.068C106.965 64.9999 106.914 64.9439 106.914 64.8319L108.09 55.3539C108.09 55.3072 108.108 55.2699 108.146 55.2419C108.183 55.2046 108.225 55.1859 108.272 55.1859H110.82C111.473 55.1859 111.986 55.4052 112.36 55.8439C112.742 56.2732 112.934 56.8472 112.934 57.5659C112.934 57.6592 112.924 57.8179 112.906 58.0419C112.831 58.6206 112.658 59.1246 112.388 59.5539C112.117 59.9739 111.776 60.2912 111.366 60.5059C111.328 60.5152 111.31 60.5432 111.31 60.5899L112.122 64.8039V64.8599C112.122 64.9532 112.07 64.9999 111.968 64.9999H110.666ZM109.574 56.5859C109.527 56.5859 109.504 56.6092 109.504 56.6559L109.154 59.4419C109.154 59.4886 109.172 59.5119 109.21 59.5119H110.05C110.414 59.5119 110.717 59.3532 110.96 59.0359C111.212 58.7092 111.338 58.2846 111.338 57.7619C111.338 57.3979 111.254 57.1132 111.086 56.9079C110.918 56.6932 110.689 56.5859 110.4 56.5859H109.574Z" fill="white"></path><path d="M100.383 64.9998C100.281 64.9998 100.229 64.9485 100.229 64.8458L100.145 63.3758C100.155 63.3572 100.15 63.3432 100.131 63.3338C100.113 63.3152 100.094 63.3058 100.075 63.3058H98.1013C98.0453 63.3058 98.0173 63.3245 98.0173 63.3618L97.5693 64.8458C97.5413 64.9485 97.476 64.9998 97.3733 64.9998H96.1133C96.0013 64.9998 95.964 64.9392 96.0013 64.8178L99.1653 55.3538C99.1933 55.2512 99.2586 55.1998 99.3613 55.1998H100.817C100.864 55.1998 100.901 55.2138 100.929 55.2418C100.957 55.2698 100.971 55.3072 100.971 55.3538L101.825 64.8178C101.825 64.9392 101.765 64.9998 101.643 64.9998H100.383ZM98.4653 61.9618C98.4466 62.0085 98.4653 62.0318 98.5213 62.0318H100.005C100.061 62.0318 100.085 62.0085 100.075 61.9618L99.8513 57.7338C99.842 57.7058 99.828 57.6918 99.8093 57.6918C99.8 57.6918 99.786 57.7058 99.7673 57.7338L98.4653 61.9618Z" fill="white"></path><path d="M91.9673 56.4318C91.958 56.4785 91.9346 56.5205 91.8973 56.5578C91.8693 56.5858 91.832 56.5998 91.7853 56.5998H88.8453C88.7986 56.5998 88.7753 56.6232 88.7753 56.6698L88.4393 59.3158C88.4393 59.3625 88.4626 59.3858 88.5093 59.3858H90.2453C90.292 59.3858 90.3293 59.4045 90.3573 59.4418C90.3853 59.4698 90.3946 59.5072 90.3853 59.5538L90.2453 60.6318C90.2453 60.6785 90.2266 60.7205 90.1893 60.7578C90.152 60.7858 90.11 60.7998 90.0633 60.7998H88.3273C88.2806 60.7998 88.2573 60.8232 88.2573 60.8698L87.9213 63.5298C87.9213 63.5765 87.9446 63.5998 87.9913 63.5998H90.9173C90.964 63.5998 91.0013 63.6185 91.0293 63.6558C91.0573 63.6838 91.0666 63.7212 91.0573 63.7678L90.9313 64.8318C90.922 64.8785 90.8986 64.9205 90.8613 64.9578C90.8333 64.9858 90.796 64.9998 90.7493 64.9998H86.3393C86.2366 64.9998 86.1853 64.9438 86.1853 64.8318L87.3473 55.3678C87.3566 55.3212 87.38 55.2838 87.4173 55.2558C87.4546 55.2185 87.4966 55.1998 87.5433 55.1998H91.9533C92 55.1998 92.0373 55.2185 92.0653 55.2558C92.0933 55.2838 92.1026 55.3212 92.0933 55.3678L91.9673 56.4318Z" fill="white"></path><path d="M74.73 64.9998C74.618 64.9998 74.562 64.9485 74.562 64.8458L73.918 55.3818V55.3538C73.918 55.2512 73.974 55.1998 74.086 55.1998H75.388C75.4906 55.1998 75.542 55.2512 75.542 55.3538L75.78 61.1918C75.78 61.2198 75.7893 61.2338 75.808 61.2338C75.8266 61.2338 75.8406 61.2198 75.85 61.1918L77.432 55.3538C77.46 55.2512 77.5253 55.1998 77.628 55.1998H78.706C78.818 55.1998 78.874 55.2512 78.874 55.3538L79.07 61.1918C79.0793 61.2198 79.0933 61.2338 79.112 61.2338C79.1306 61.2338 79.1446 61.2198 79.154 61.1918L80.722 55.3538C80.75 55.2512 80.8153 55.1998 80.918 55.1998H82.192C82.2386 55.1998 82.2713 55.2185 82.29 55.2558C82.318 55.2838 82.3273 55.3258 82.318 55.3818L79.434 64.8458C79.406 64.9485 79.3406 64.9998 79.238 64.9998H78.076C77.9733 64.9998 77.922 64.9485 77.922 64.8458L77.74 58.8958C77.74 58.8585 77.7306 58.8398 77.712 58.8398C77.6933 58.8398 77.6746 58.8585 77.656 58.8958L76.088 64.8458C76.06 64.9485 75.9946 64.9998 75.892 64.9998H74.73Z" fill="white"></path><path d="M62.8354 64.9998C62.7327 64.9998 62.6814 64.9438 62.6814 64.8318L63.8434 55.3678C63.8527 55.3212 63.8761 55.2838 63.9134 55.2558C63.9507 55.2185 63.9927 55.1998 64.0394 55.1998H65.2854C65.3321 55.1998 65.3694 55.2185 65.3974 55.2558C65.4254 55.2838 65.4347 55.3212 65.4254 55.3678L64.9494 59.2318C64.9401 59.2692 64.9447 59.2925 64.9634 59.3018C64.9914 59.3018 65.0147 59.2878 65.0334 59.2598L67.5534 55.3258C67.6001 55.2418 67.6701 55.1998 67.7634 55.1998H69.1074C69.1914 55.1998 69.2334 55.2278 69.2334 55.2838C69.2334 55.3118 69.2194 55.3492 69.1914 55.3958L66.6714 59.3298C66.6621 59.3672 66.6574 59.3952 66.6574 59.4138L68.1974 64.8038V64.8458C68.1974 64.9485 68.1461 64.9998 68.0434 64.9998H66.6994C66.6061 64.9998 66.5501 64.9578 66.5314 64.8738L65.4254 60.8278C65.4161 60.7998 65.4021 60.7905 65.3834 60.7998C65.3647 60.7998 65.3461 60.8092 65.3274 60.8278L64.6694 61.7658C64.6601 61.7752 64.6507 61.7892 64.6414 61.8078C64.6321 61.8172 64.6274 61.8312 64.6274 61.8498L64.2634 64.8318C64.2541 64.8785 64.2307 64.9205 64.1934 64.9578C64.1654 64.9858 64.1281 64.9998 64.0814 64.9998H62.8354Z" fill="white"></path><path d="M56.1717 64.9999C56.0783 64.9999 56.0223 64.9532 56.0037 64.8599L55.3317 60.8279C55.3317 60.7906 55.313 60.7719 55.2757 60.7719H54.5617C54.543 60.7719 54.5243 60.7812 54.5057 60.7999C54.4963 60.8092 54.4917 60.8232 54.4917 60.8419L54.0017 64.8319C53.9923 64.8786 53.969 64.9206 53.9317 64.9579C53.9037 64.9859 53.8663 64.9999 53.8197 64.9999H52.5737C52.471 64.9999 52.4197 64.9439 52.4197 64.8319L53.5957 55.3539C53.5957 55.3072 53.6143 55.2699 53.6517 55.2419C53.689 55.2046 53.731 55.1859 53.7777 55.1859H56.3257C56.979 55.1859 57.4923 55.4052 57.8657 55.8439C58.2483 56.2732 58.4397 56.8472 58.4397 57.5659C58.4397 57.6592 58.4303 57.8179 58.4117 58.0419C58.337 58.6206 58.1643 59.1246 57.8937 59.5539C57.623 59.9739 57.2823 60.2912 56.8717 60.5059C56.8343 60.5152 56.8157 60.5432 56.8157 60.5899L57.6277 64.8039V64.8599C57.6277 64.9532 57.5763 64.9999 57.4737 64.9999H56.1717ZM55.0797 56.5859C55.033 56.5859 55.0097 56.6092 55.0097 56.6559L54.6597 59.4419C54.6597 59.4886 54.6783 59.5119 54.7157 59.5119H55.5557C55.9197 59.5119 56.223 59.3532 56.4657 59.0359C56.7177 58.7092 56.8437 58.2846 56.8437 57.7619C56.8437 57.3979 56.7597 57.1132 56.5917 56.9079C56.4237 56.6932 56.195 56.5859 55.9057 56.5859H55.0797Z" fill="white"></path><path d="M44.484 65.1119C43.7747 65.1119 43.2147 64.9112 42.804 64.5099C42.3933 64.1086 42.188 63.5626 42.188 62.8719C42.188 62.7972 42.1973 62.6572 42.216 62.4519L42.79 57.7479C42.8833 56.9452 43.196 56.3012 43.728 55.8159C44.2693 55.3306 44.932 55.0879 45.716 55.0879C46.4253 55.0879 46.9853 55.2886 47.396 55.6899C47.8067 56.0819 48.012 56.6186 48.012 57.2999C48.012 57.3932 48.0027 57.5426 47.984 57.7479L47.41 62.4519C47.3167 63.2546 46.9993 63.8986 46.458 64.3839C45.926 64.8692 45.268 65.1119 44.484 65.1119ZM44.652 63.7119C44.96 63.7119 45.2213 63.6046 45.436 63.3899C45.6507 63.1659 45.7813 62.8766 45.828 62.5219L46.43 57.6779C46.4393 57.6312 46.444 57.5659 46.444 57.4819C46.444 57.1739 46.36 56.9312 46.192 56.7539C46.0333 56.5766 45.814 56.4879 45.534 56.4879C45.226 56.4879 44.9647 56.5999 44.75 56.8239C44.5447 57.0386 44.4187 57.3232 44.372 57.6779L43.784 62.5219C43.7747 62.5779 43.77 62.6572 43.77 62.7599C43.77 63.0492 43.8447 63.2826 43.994 63.4599C44.1527 63.6279 44.372 63.7119 44.652 63.7119Z" fill="white"></path><path d="M30.812 64.9998C30.7 64.9998 30.644 64.9485 30.644 64.8458L30 55.3818V55.3538C30 55.2512 30.056 55.1998 30.168 55.1998H31.47C31.5727 55.1998 31.624 55.2512 31.624 55.3538L31.862 61.1918C31.862 61.2198 31.8713 61.2338 31.89 61.2338C31.9087 61.2338 31.9227 61.2198 31.932 61.1918L33.514 55.3538C33.542 55.2512 33.6073 55.1998 33.71 55.1998H34.788C34.9 55.1998 34.956 55.2512 34.956 55.3538L35.152 61.1918C35.1613 61.2198 35.1753 61.2338 35.194 61.2338C35.2127 61.2338 35.2267 61.2198 35.236 61.1918L36.804 55.3538C36.832 55.2512 36.8973 55.1998 37 55.1998H38.274C38.3207 55.1998 38.3533 55.2185 38.372 55.2558C38.4 55.2838 38.4093 55.3258 38.4 55.3818L35.516 64.8458C35.488 64.9485 35.4227 64.9998 35.32 64.9998H34.158C34.0553 64.9998 34.004 64.9485 34.004 64.8458L33.822 58.8958C33.822 58.8585 33.8127 58.8398 33.794 58.8398C33.7753 58.8398 33.7567 58.8585 33.738 58.8958L32.17 64.8458C32.142 64.9485 32.0767 64.9998 31.974 64.9998H30.812Z" fill="white"></path></svg>